<svg width="81" height="80" xmlns="http://www.w3.org/2000/svg" xmlns:xlink="http://www.w3.org/1999/xlink" xml:space="preserve" overflow="hidden"><g transform="translate(-313 -124)"><g><g><g><g><path d="M314 124 394 124 394 204 314 204Z" fill="#ED7100" fill-rule="evenodd" fill-opacity="1"/><path d="M349.628 185.366C350.294 184.894 350.96 184.409 351.628 183.908L351.628 189.628 349.628 189.628 349.628 185.366ZM375.373 159.628 379.628 159.628 379.628 161.628 373.918 161.628C374.419 160.96 374.901 160.294 375.373 159.628ZM373.628 165.628 379.628 165.628 379.628 167.628 373.628 167.628 373.628 171.628 379.628 171.628 379.628 173.628 373.628 173.628 373.628 177.628 379.628 177.628 379.628 179.628 373.628 179.628 373.628 182.628C373.628 183.18 373.181 183.628 372.628 183.628L369.628 183.628 369.628 189.628 367.628 189.628 367.628 183.628 363.628 183.628 363.628 189.628 361.628 189.628 361.628 183.628 357.628 183.628 357.628 189.628 355.628 189.628 355.628 183.628 351.997 183.628C352.849 182.982 353.698 182.315 354.547 181.628L371.628 181.628 371.628 164.557C372.315 163.71 372.982 162.859 373.628 162.008L373.628 165.628ZM333.628 179.628 327.628 179.628 327.628 177.628 333.628 177.628 333.628 173.628 327.628 173.628 327.628 171.628 333.628 171.628 333.628 167.628 327.628 167.628 327.628 165.628 333.628 165.628 333.628 161.628 327.628 161.628 327.628 159.628 333.628 159.628 333.628 155.628 327.628 155.628 327.628 153.628 333.628 153.628 333.628 149.628 327.628 149.628 327.628 147.628 333.628 147.628 333.628 144.628C333.628 144.075 334.075 143.628 334.628 143.628L337.628 143.628 337.628 137.628 339.628 137.628 339.628 143.628 343.628 143.628 343.628 137.628 345.628 137.628 345.628 143.628 349.628 143.628 349.628 137.628 351.628 137.628 351.628 143.628 355.628 143.628 355.628 137.628 357.628 137.628 357.628 143.628 361.628 143.628 361.628 137.628 363.628 137.628 363.628 143.628 367.628 143.628 367.628 137.628 369.628 137.628 369.628 143.628 372.628 143.628C373.181 143.628 373.628 144.075 373.628 144.628L373.628 151.275C373.04 152.293 372.374 153.366 371.628 154.492L371.628 145.628 335.628 145.628 335.628 181.628 344.493 181.628C343.368 182.374 342.294 183.04 341.276 183.628L334.628 183.628C334.075 183.628 333.628 183.18 333.628 182.628L333.628 179.628ZM361.628 167.628C363.834 167.628 365.628 169.422 365.628 171.628 365.628 173.833 363.834 175.628 361.628 175.628 359.422 175.628 357.628 173.833 357.628 171.628 357.628 169.422 359.422 167.628 361.628 167.628ZM361.628 177.628C364.937 177.628 367.628 174.936 367.628 171.628 367.628 170.165 367.101 168.824 366.228 167.782 380.545 151.971 383.331 141.004 379.791 137.465 378.29 135.963 375.882 135.618 372.628 136.421L372.628 138.494C375.338 137.747 377.369 137.871 378.377 138.879 382.069 142.571 374.237 155.921 364.704 166.486 363.804 165.945 362.753 165.628 361.628 165.628 358.319 165.628 355.628 168.319 355.628 171.628 355.628 172.753 355.945 173.803 356.486 174.704 345.901 184.25 332.577 192.07 328.879 188.377 327.872 187.369 327.748 185.337 328.494 182.628L326.421 182.628C325.618 185.881 325.964 188.289 327.465 189.791 328.364 190.69 329.74 191.182 331.552 191.182 336.882 191.182 345.985 186.906 357.779 176.225 358.821 177.099 360.164 177.628 361.628 177.628Z" fill="#FFFFFF" fill-rule="evenodd" fill-opacity="1"/></g></g></g></g></g></svg>